<?xml version="1.0" encoding="UTF-8"?>
<!DOCTYPE svg PUBLIC "-//W3C//DTD SVG 1.1//EN" "http://www.w3.org/Graphics/SVG/1.1/DTD/svg11.dtd">
<svg xmlns="http://www.w3.org/2000/svg" version="1.1" width="162px" height="162px" style="shape-rendering:geometricPrecision; text-rendering:geometricPrecision; image-rendering:optimizeQuality; fill-rule:evenodd; clip-rule:evenodd" xmlns:xlink="http://www.w3.org/1999/xlink">
<g><path style="opacity:1" fill="#fd6b3f" d="M 70.5,4.5 C 72.5,5.83333 74.1667,7.5 75.5,9.5C 67.4136,11.2104 60.0803,14.5438 53.5,19.5C 53.5,18.5 53.5,17.5 53.5,16.5C 58.319,11.2608 63.9857,7.26078 70.5,4.5 Z"/></g>
<g><path style="opacity:1" fill="#ffdfd5" d="M 69.5,2.5 C 70.3382,2.84171 70.6716,3.50838 70.5,4.5C 63.9857,7.26078 58.319,11.2608 53.5,16.5C 53.1667,16.5 52.8333,16.5 52.5,16.5C 57.2066,10.6495 62.8732,5.98284 69.5,2.5 Z"/></g>
<g><path style="opacity:1" fill="#f26d44" d="M 69.5,2.5 C 62.8732,5.98284 57.2066,10.6495 52.5,16.5C 51.7611,16.631 51.0944,16.4643 50.5,16C 54.7934,9.53869 60.4601,4.70536 67.5,1.5C 68.1835,1.86273 68.8501,2.19607 69.5,2.5 Z"/></g>
<g><path style="opacity:0.557" fill="#675a57" d="M 127.5,6.5 C 127.5,7.16667 127.5,7.83333 127.5,8.5C 119.823,7.98007 112.489,8.98007 105.5,11.5C 104.833,11.5 104.5,11.1667 104.5,10.5C 111.778,7.64742 119.445,6.31408 127.5,6.5 Z"/></g>
<g><path style="opacity:1" fill="#a46a63" d="M 105.5,11.5 C 112.489,8.98007 119.823,7.98007 127.5,8.5C 128.75,8.57735 129.583,9.24402 130,10.5C 131.465,16.9686 131.632,23.3019 130.5,29.5C 129.833,29.5 129.5,29.1667 129.5,28.5C 129.666,23.1563 129.499,17.8229 129,12.5C 127.579,16.3233 126.579,20.3233 126,24.5C 124.549,22.5359 122.716,21.2026 120.5,20.5C 119.761,20.369 119.094,20.5357 118.5,21C 119.501,26.3556 122.501,29.0223 127.5,29C 129.37,31.0396 131.37,32.8729 133.5,34.5C 140.944,42.7254 145.111,52.392 146,63.5C 144.59,58.2722 142.59,53.2722 140,48.5C 140.474,53.5368 141.474,58.5368 143,63.5C 143.748,68.4814 144.248,73.4814 144.5,78.5C 144.762,79.9778 144.429,81.3112 143.5,82.5C 139.422,80.8254 135.422,79.1587 131.5,77.5C 131.198,74.6275 130.531,71.9608 129.5,69.5C 129.167,68.1667 128.833,66.8333 128.5,65.5C 129.097,65.2648 129.43,64.7648 129.5,64C 128.279,54.3362 125.445,45.1695 121,36.5C 120.346,35.3044 119.846,35.3044 119.5,36.5C 122.428,42.5392 123.595,48.8725 123,55.5C 121.961,54.2899 120.794,53.2899 119.5,52.5C 116.675,48.8634 113.842,45.1967 111,41.5C 112.042,45.0997 113.876,48.433 116.5,51.5C 116.333,51.8333 116.167,52.1667 116,52.5C 114.67,51.4178 113.17,50.7512 111.5,50.5C 110.417,50.4606 109.417,50.1272 108.5,49.5C 107.702,49.9569 107.369,50.6236 107.5,51.5C 107.5,52.5 107.5,53.5 107.5,54.5C 104.5,53.8333 101.5,53.1667 98.5,52.5C 95.8045,52.067 93.6379,50.7337 92,48.5C 92.4978,50.5269 92.3311,52.5269 91.5,54.5C 90.5,54 89.5,53.5 88.5,53C 85.3092,49.31 82.3092,45.4767 79.5,41.5C 78.0569,44.0765 76.3902,46.4099 74.5,48.5C 74.631,47.7611 74.4643,47.0944 74,46.5C 72.6704,50.0067 70.1704,51.6734 66.5,51.5C 66.3893,50.8826 66.056,50.3826 65.5,50C 68.4628,48.0394 71.1294,45.706 73.5,43C 74.7441,42.5439 75.5774,43.0439 76,44.5C 80.4508,35.0889 85.9508,27.0889 92.5,20.5C 91.8333,20.1667 91.1667,19.8333 90.5,19.5C 90.5,18.8333 90.1667,18.5 89.5,18.5C 88.8333,17.5 88.1667,16.5 87.5,15.5C 86.232,13.3298 86.232,11.1632 87.5,9C 93.5451,8.87566 99.3784,10.0423 105,12.5C 106.579,12.3026 106.745,11.9693 105.5,11.5 Z"/></g>
<g><path style="opacity:1" fill="#f9693d" d="M 84.5,8.5 C 84.3379,10.5273 84.5045,12.5273 85,14.5C 85.6708,15.2524 86.5041,15.5858 87.5,15.5C 88.1667,16.5 88.8333,17.5 89.5,18.5C 81.8553,19.592 74.1887,20.592 66.5,21.5C 69.7415,19.8793 73.0748,18.2126 76.5,16.5C 78.5463,14.719 78.8796,12.719 77.5,10.5C 79.8333,9.83333 82.1667,9.16667 84.5,8.5 Z"/></g>
<g><path style="opacity:1" fill="#f76b3f" d="M 76.5,11.5 C 69.8556,14.6208 63.1889,17.9542 56.5,21.5C 55.3478,22.625 54.3478,22.625 53.5,21.5C 60.0742,15.7143 67.7409,12.3809 76.5,11.5 Z"/></g>
<g><path style="opacity:0.788" fill="#5b342b" d="M 104.5,10.5 C 104.5,11.1667 104.833,11.5 105.5,11.5C 106.745,11.9693 106.579,12.3026 105,12.5C 99.3784,10.0423 93.5451,8.87566 87.5,9C 86.232,11.1632 86.232,13.3298 87.5,15.5C 86.5041,15.5858 85.6708,15.2524 85,14.5C 84.5045,12.5273 84.3379,10.5273 84.5,8.5C 85.3382,8.15829 85.6716,7.49162 85.5,6.5C 86.463,5.6365 86.463,4.96983 85.5,4.5C 82.2314,5.46853 79.2314,6.80187 76.5,8.5C 76.5,9.16667 76.1667,9.5 75.5,9.5C 74.1667,7.5 72.5,5.83333 70.5,4.5C 70.6716,3.50838 70.3382,2.84171 69.5,2.5C 68.8501,2.19607 68.1835,1.86273 67.5,1.5C 60.4601,4.70536 54.7934,9.53869 50.5,16C 51.0944,16.4643 51.7611,16.631 52.5,16.5C 52.8333,16.5 53.1667,16.5 53.5,16.5C 53.5,17.5 53.5,18.5 53.5,19.5C 53.5,20.1667 53.5,20.8333 53.5,21.5C 54.3478,22.625 55.3478,22.625 56.5,21.5C 57.5676,22.4345 58.901,22.7678 60.5,22.5C 59.5,23.1667 58.5,23.8333 57.5,24.5C 56.6679,26.7248 57.6679,28.0581 60.5,28.5C 59.3281,29.7053 57.9948,29.7053 56.5,28.5C 55.6143,29.325 55.281,30.325 55.5,31.5C 55.1667,31.5 54.8333,31.5 54.5,31.5C 54.7148,29.8212 54.0481,28.8212 52.5,28.5C 56.0424,27.1348 56.2091,25.4682 53,23.5C 52.5045,21.5273 52.3379,19.5273 52.5,17.5C 48.8707,18.7957 45.3707,18.4624 42,16.5C 42.153,20.4475 40.9863,23.7808 38.5,26.5C 38.5,26.1667 38.5,25.8333 38.5,25.5C 37.4324,24.5655 36.099,24.2322 34.5,24.5C 35.8775,23.7656 37.3775,23.0989 39,22.5C 39.4966,20.1902 39.6633,17.8568 39.5,15.5C 42.897,16.1919 46.2303,16.1919 49.5,15.5C 53.6832,8.47693 59.5165,3.47693 67,0.5C 70.786,1.11496 73.6194,3.11496 75.5,6.5C 79.7628,4.3945 84.0962,3.3945 88.5,3.5C 87.5721,4.76779 87.4054,6.10112 88,7.5C 93.6065,7.13068 99.1065,8.13068 104.5,10.5 Z"/></g>
<g><path style="opacity:1" fill="#ed663b" d="M 85.5,6.5 C 82.5394,7.32336 79.5394,7.99003 76.5,8.5C 79.2314,6.80187 82.2314,5.46853 85.5,4.5C 86.463,4.96983 86.463,5.6365 85.5,6.5 Z"/></g>
<g><path style="opacity:1" fill="#fdd8cc" d="M 85.5,6.5 C 85.6716,7.49162 85.3382,8.15829 84.5,8.5C 82.1667,9.16667 79.8333,9.83333 77.5,10.5C 76.8333,10.5 76.5,10.8333 76.5,11.5C 67.7409,12.3809 60.0742,15.7143 53.5,21.5C 53.5,20.8333 53.5,20.1667 53.5,19.5C 60.0803,14.5438 67.4136,11.2104 75.5,9.5C 76.1667,9.5 76.5,9.16667 76.5,8.5C 79.5394,7.99003 82.5394,7.32336 85.5,6.5 Z"/></g>
<g><path style="opacity:1" fill="#882c18" d="M 77.5,10.5 C 78.8796,12.719 78.5463,14.719 76.5,16.5C 73.0748,18.2126 69.7415,19.8793 66.5,21.5C 64.5,21.8333 62.5,22.1667 60.5,22.5C 58.901,22.7678 57.5676,22.4345 56.5,21.5C 63.1889,17.9542 69.8556,14.6208 76.5,11.5C 76.5,10.8333 76.8333,10.5 77.5,10.5 Z"/></g>
<g><path style="opacity:1" fill="#ffd3c5" d="M 89.5,18.5 C 90.1667,18.5 90.5,18.8333 90.5,19.5C 79.5901,21.6757 68.5901,23.3423 57.5,24.5C 58.5,23.8333 59.5,23.1667 60.5,22.5C 62.5,22.1667 64.5,21.8333 66.5,21.5C 74.1887,20.592 81.8553,19.592 89.5,18.5 Z"/></g>
<g><path style="opacity:1" fill="#50342f" d="M 129.5,28.5 C 125.895,26.5281 122.895,23.8615 120.5,20.5C 122.716,21.2026 124.549,22.5359 126,24.5C 126.579,20.3233 127.579,16.3233 129,12.5C 129.499,17.8229 129.666,23.1563 129.5,28.5 Z"/></g>
<g><path style="opacity:1" fill="#c9cbcb" d="M 52.5,28.5 C 50.2712,29.0553 48.6046,30.3886 47.5,32.5C 46.8165,32.1373 46.1499,31.8039 45.5,31.5C 45.5,30.8333 45.5,30.1667 45.5,29.5C 42.6879,29.2331 40.3545,28.2331 38.5,26.5C 40.9863,23.7808 42.153,20.4475 42,16.5C 45.3707,18.4624 48.8707,18.7957 52.5,17.5C 52.3379,19.5273 52.5045,21.5273 53,23.5C 56.2091,25.4682 56.0424,27.1348 52.5,28.5 Z"/></g>
<g><path style="opacity:1" fill="#fa6c40" d="M 47.5,21.5 C 48.1667,23.1667 48.8333,24.8333 49.5,26.5C 48.8333,26.8333 48.1667,27.1667 47.5,27.5C 46.5,25.8333 45.1667,24.5 43.5,23.5C 43.8373,20.6643 45.1707,19.9976 47.5,21.5 Z"/></g>
<g><path style="opacity:1" fill="#624a42" d="M 51.5,21.5 C 50.1667,20.1667 48.8333,20.1667 47.5,21.5C 45.1707,19.9976 43.8373,20.6643 43.5,23.5C 44.8872,26.3117 43.8872,27.1451 40.5,26C 41.9708,23.7572 42.9708,21.2572 43.5,18.5C 46.6502,18.7657 49.3168,19.7657 51.5,21.5 Z"/></g>
<g><path style="opacity:1" fill="#c09587" d="M 51.5,21.5 C 51.5,22.5 51.5,23.5 51.5,24.5C 51.1667,25.5 50.5,26.1667 49.5,26.5C 48.8333,24.8333 48.1667,23.1667 47.5,21.5C 48.8333,20.1667 50.1667,20.1667 51.5,21.5 Z"/></g>
<g><path style="opacity:1" fill="#ea653b" d="M 90.5,19.5 C 91.1667,19.8333 91.8333,20.1667 92.5,20.5C 89.8333,21.5 87.1667,22.5 84.5,23.5C 80.0725,23.7988 75.7391,24.4654 71.5,25.5C 67.8778,25.8683 64.3778,25.8683 61,25.5C 60.5172,26.448 60.3505,27.448 60.5,28.5C 57.6679,28.0581 56.6679,26.7248 57.5,24.5C 68.5901,23.3423 79.5901,21.6757 90.5,19.5 Z"/></g>
<g><path style="opacity:1" fill="#212e3e" d="M 84.5,23.5 C 86.5567,23.9567 86.5567,24.9567 84.5,26.5C 80.1578,26.7395 75.8244,27.0728 71.5,27.5C 71.5,26.8333 71.5,26.1667 71.5,25.5C 75.7391,24.4654 80.0725,23.7988 84.5,23.5 Z"/></g>
<g><path style="opacity:1" fill="#705c56" d="M 51.5,24.5 C 52.2891,24.7828 52.9558,25.2828 53.5,26C 50.8976,26.8834 48.7309,28.3834 47,30.5C 46.6174,29.944 46.1174,29.6107 45.5,29.5C 45.369,28.7611 45.5357,28.0944 46,27.5C 46.69,28.7383 47.19,28.7383 47.5,27.5C 48.1667,27.1667 48.8333,26.8333 49.5,26.5C 50.5,26.1667 51.1667,25.5 51.5,24.5 Z"/></g>
<g><path style="opacity:1" fill="#875f57" d="M 71.5,25.5 C 71.5,26.1667 71.5,26.8333 71.5,27.5C 70.609,28.1098 69.609,28.4431 68.5,28.5C 65.8333,28.5 63.1667,28.5 60.5,28.5C 60.3505,27.448 60.5172,26.448 61,25.5C 64.3778,25.8683 67.8778,25.8683 71.5,25.5 Z"/></g>
<g><path style="opacity:1" fill="#e2c3bc" d="M 120.5,20.5 C 122.895,23.8615 125.895,26.5281 129.5,28.5C 129.5,29.1667 129.833,29.5 130.5,29.5C 131.925,30.922 132.925,32.5887 133.5,34.5C 131.37,32.8729 129.37,31.0396 127.5,29C 122.501,29.0223 119.501,26.3556 118.5,21C 119.094,20.5357 119.761,20.369 120.5,20.5 Z"/></g>
<g><path style="opacity:1" fill="#f1f0f0" d="M 60.5,28.5 C 63.1667,28.5 65.8333,28.5 68.5,28.5C 61.0494,35.7254 52.7161,41.7254 43.5,46.5C 42.6236,46.6309 41.9569,46.2975 41.5,45.5C 42.7932,41.8798 44.7932,38.8798 47.5,36.5C 50.1522,36.5905 52.4855,35.9238 54.5,34.5C 55.404,33.791 55.7373,32.791 55.5,31.5C 55.281,30.325 55.6143,29.325 56.5,28.5C 57.9948,29.7053 59.3281,29.7053 60.5,28.5 Z"/></g>
<g><path style="opacity:1" fill="#0b6ca8" d="M 84.5,26.5 C 72.2045,45.4814 54.8712,56.6481 32.5,60C 33.6217,57.8762 35.1217,56.0429 37,54.5C 37.49,53.2068 37.6567,51.8734 37.5,50.5C 39.2722,48.7104 41.2722,47.3771 43.5,46.5C 52.7161,41.7254 61.0494,35.7254 68.5,28.5C 69.609,28.4431 70.609,28.1098 71.5,27.5C 75.8244,27.0728 80.1578,26.7395 84.5,26.5 Z"/></g>
<g><path style="opacity:1" fill="#e5c1b9" d="M 114.5,28.5 C 116.729,29.0553 118.395,30.3886 119.5,32.5C 116.853,32.8951 115.187,31.5618 114.5,28.5 Z"/></g>
<g><path style="opacity:1" fill="#765f5b" d="M 52.5,28.5 C 54.0481,28.8212 54.7148,29.8212 54.5,31.5C 50.69,32.2458 50.69,33.2458 54.5,34.5C 52.4855,35.9238 50.1522,36.5905 47.5,36.5C 47.573,34.9731 46.9063,33.9731 45.5,33.5C 45.5,32.8333 45.5,32.1667 45.5,31.5C 46.1499,31.8039 46.8165,32.1373 47.5,32.5C 48.6046,30.3886 50.2712,29.0553 52.5,28.5 Z"/></g>
<g><path style="opacity:1" fill="#fd6d40" d="M 37.5,27.5 C 37.3284,28.4916 37.6618,29.1583 38.5,29.5C 32.5374,33.7949 27.204,38.7949 22.5,44.5C 20.9752,42.7837 19.9752,40.7837 19.5,38.5C 24.4899,33.3311 30.4899,29.6644 37.5,27.5 Z"/></g>
<g><path style="opacity:1" fill="#fcdfd7" d="M 36.5,25.5 C 37.1667,25.5 37.8333,25.5 38.5,25.5C 38.5,25.8333 38.5,26.1667 38.5,26.5C 37.8333,26.5 37.5,26.8333 37.5,27.5C 30.4899,29.6644 24.4899,33.3311 19.5,38.5C 18.6618,38.1583 18.3284,37.4916 18.5,36.5C 24.235,32.3039 30.235,28.6372 36.5,25.5 Z"/></g>
<g><path style="opacity:1" fill="#f76a3f" d="M 36.5,25.5 C 30.235,28.6372 24.235,32.3039 18.5,36.5C 18.4521,33.7081 19.7854,31.8747 22.5,31C 26.8632,28.3156 31.5299,26.4822 36.5,25.5 Z"/></g>
<g><path style="opacity:1" fill="#b75334" d="M 54.5,31.5 C 54.8333,31.5 55.1667,31.5 55.5,31.5C 55.7373,32.791 55.404,33.791 54.5,34.5C 50.69,33.2458 50.69,32.2458 54.5,31.5 Z"/></g>
<g><path style="opacity:1" fill="#e15c33" d="M 45.5,33.5 C 46.9063,33.9731 47.573,34.9731 47.5,36.5C 44.7524,36.5983 44.0857,35.5983 45.5,33.5 Z"/></g>
<g><path style="opacity:1" fill="#6d3b2e" d="M 38.5,26.5 C 40.3545,28.2331 42.6879,29.2331 45.5,29.5C 45.5,30.1667 45.5,30.8333 45.5,31.5C 45.5,32.1667 45.5,32.8333 45.5,33.5C 44.0857,35.5983 44.7524,36.5983 47.5,36.5C 44.7932,38.8798 42.7932,41.8798 41.5,45.5C 41.9569,46.2975 42.6236,46.6309 43.5,46.5C 41.2722,47.3771 39.2722,48.7104 37.5,50.5C 39.3068,46.8864 41.1401,43.2198 43,39.5C 43.765,37.9343 43.5983,36.6009 42.5,35.5C 40.8333,36.5 39.5,37.8333 38.5,39.5C 37.3552,38.2073 37.6885,37.0407 39.5,36C 38.9056,35.5357 38.2389,35.369 37.5,35.5C 38.8333,33.8333 40.1667,32.1667 41.5,30.5C 40.791,29.596 39.791,29.2627 38.5,29.5C 37.6618,29.1583 37.3284,28.4916 37.5,27.5C 37.5,26.8333 37.8333,26.5 38.5,26.5 Z"/></g>
<g><path style="opacity:1" fill="#ffe3da" d="M 38.5,29.5 C 39.791,29.2627 40.791,29.596 41.5,30.5C 34.3014,34.0294 28.3014,39.0294 23.5,45.5C 23.1667,45.5 22.8333,45.5 22.5,45.5C 22.5,45.1667 22.5,44.8333 22.5,44.5C 27.204,38.7949 32.5374,33.7949 38.5,29.5 Z"/></g>
<g><path style="opacity:1" fill="#8c301b" d="M 37.5,35.5 C 38.2389,35.369 38.9056,35.5357 39.5,36C 37.6885,37.0407 37.3552,38.2073 38.5,39.5C 38.6716,40.4916 38.3382,41.1583 37.5,41.5C 34.6096,44.5526 31.2762,47.0526 27.5,49C 25.5048,49.6128 23.8381,49.1128 22.5,47.5C 22.5,46.8333 22.5,46.1667 22.5,45.5C 22.8333,45.5 23.1667,45.5 23.5,45.5C 23.811,46.4778 24.4777,47.1445 25.5,47.5C 28.5426,42.4573 32.5426,38.4573 37.5,35.5 Z"/></g>
<g><path style="opacity:1" fill="#f0d1c9" d="M 95.5,36.5 C 96.9953,36.4148 97.9953,37.0815 98.5,38.5C 96.6043,39.6394 95.6043,38.9728 95.5,36.5 Z"/></g>
<g><path style="opacity:1" fill="#fa6b3f" d="M 41.5,30.5 C 40.1667,32.1667 38.8333,33.8333 37.5,35.5C 32.5426,38.4573 28.5426,42.4573 25.5,47.5C 24.4777,47.1445 23.811,46.4778 23.5,45.5C 28.3014,39.0294 34.3014,34.0294 41.5,30.5 Z"/></g>
<g><path style="opacity:0.996" fill="#6a3120" d="M 34.5,24.5 C 36.099,24.2322 37.4324,24.5655 38.5,25.5C 37.8333,25.5 37.1667,25.5 36.5,25.5C 31.5299,26.4822 26.8632,28.3156 22.5,31C 19.7854,31.8747 18.4521,33.7081 18.5,36.5C 18.3284,37.4916 18.6618,38.1583 19.5,38.5C 19.9752,40.7837 20.9752,42.7837 22.5,44.5C 22.5,44.8333 22.5,45.1667 22.5,45.5C 22.1667,45.5 21.8333,45.5 21.5,45.5C 21.5654,45.0618 21.3988,44.7284 21,44.5C 19.2068,47.2953 17.0402,49.7953 14.5,52C 15.0944,52.4643 15.7611,52.631 16.5,52.5C 16.5,53.1667 16.8333,53.5 17.5,53.5C 19.4147,53.2155 21.0813,53.5489 22.5,54.5C 21.8333,54.5 21.5,54.8333 21.5,55.5C 17.8905,55.5977 14.5571,54.7643 11.5,53C 14.9407,50.2324 17.6073,46.899 19.5,43C 17.8223,39.9813 16.989,36.8147 17,33.5C 21.9424,28.7787 27.7757,25.7787 34.5,24.5 Z"/></g>
<g><path style="opacity:1" fill="#f6e0da" d="M 98.5,52.5 C 99.842,53.793 101.509,54.6264 103.5,55C 106.817,55.4983 110.15,55.665 113.5,55.5C 121.09,55.118 126.09,58.4514 128.5,65.5C 128.833,66.8333 129.167,68.1667 129.5,69.5C 129.631,70.3764 129.298,71.0431 128.5,71.5C 127.289,70.7261 127.289,69.8928 128.5,69C 125.823,68.7506 123.49,67.7506 121.5,66C 117.527,65.7229 113.694,65.5562 110,65.5C 108.113,68.8243 107.279,72.1577 107.5,75.5C 106.84,76.964 106.507,78.6307 106.5,80.5C 106.316,83.2046 106.983,85.5379 108.5,87.5C 109.268,90.5616 111.268,92.2283 114.5,92.5C 110.179,98.0533 110.845,102.887 116.5,107C 123.189,108.304 127.189,105.637 128.5,99C 128.236,94.2444 125.902,91.0778 121.5,89.5C 121.5,88.8333 121.5,88.1667 121.5,87.5C 121.5,86.8333 121.5,86.1667 121.5,85.5C 121.833,85.5 122.167,85.5 122.5,85.5C 123.851,82.2277 123.684,78.8944 122,75.5C 121.601,75.7284 121.435,76.0618 121.5,76.5C 120.167,76.5 118.833,76.5 117.5,76.5C 117.5,75.5 117.5,74.5 117.5,73.5C 117.577,72.2502 118.244,71.4169 119.5,71C 118.956,70.2828 118.289,69.7828 117.5,69.5C 120.74,69.1918 123.574,70.5251 126,73.5C 126.456,76.5716 126.456,79.5716 126,82.5C 127.61,80.4032 128.777,78.0698 129.5,75.5C 130.802,84.2257 130.802,92.8924 129.5,101.5C 129.167,102.833 128.833,104.167 128.5,105.5C 121.07,112.88 112.403,118.213 102.5,121.5C 88.1203,123.904 74.7869,121.237 62.5,113.5C 57.9761,105.585 54.6427,97.2517 52.5,88.5C 52.3505,87.448 52.5172,86.448 53,85.5C 54.3076,87.6414 55.8076,89.6414 57.5,91.5C 58.5624,90.5754 58.5624,89.5754 57.5,88.5C 57.1201,86.302 57.7868,84.6354 59.5,83.5C 59.6785,86.2165 60.1785,88.8832 61,91.5C 61.4169,92.756 62.2502,93.4226 63.5,93.5C 64.1667,93.5 64.5,93.8333 64.5,94.5C 63.2617,94.81 63.2617,95.31 64.5,96C 67.8662,97.8789 71.1995,97.8789 74.5,96C 72.8807,95.7645 71.8807,94.9311 71.5,93.5C 71.2053,91.2646 71.5386,89.2646 72.5,87.5C 72.2639,90.2257 73.0972,92.559 75,94.5C 76.4048,93.2695 77.5714,91.9361 78.5,90.5C 79.8077,86.9813 79.8077,83.3147 78.5,79.5C 76.0654,81.0521 74.0654,80.7188 72.5,78.5C 72.5743,76.5891 73.5743,75.4224 75.5,75C 74.0899,73.6283 72.4233,72.795 70.5,72.5C 74.3443,71.0547 77.6776,72.0547 80.5,75.5C 80.8333,75.1667 81.1667,74.8333 81.5,74.5C 77.6456,68.9958 72.3122,67.1625 65.5,69C 61.7238,70.9474 58.3904,73.4474 55.5,76.5C 52.0504,77.2436 50.3838,75.9103 50.5,72.5C 51.3065,71.2719 52.3065,70.2719 53.5,69.5C 57.288,66.5736 61.288,63.7403 65.5,61C 69.7136,59.4208 74.0469,58.2542 78.5,57.5C 75.6281,56.2175 72.7947,56.2175 70,57.5C 70.4021,54.0289 71.9021,51.0289 74.5,48.5C 76.3902,46.4099 78.0569,44.0765 79.5,41.5C 82.3092,45.4767 85.3092,49.31 88.5,53C 89.5,53.5 90.5,54 91.5,54.5C 92.3311,52.5269 92.4978,50.5269 92,48.5C 93.6379,50.7337 95.8045,52.067 98.5,52.5 Z"/></g>
<g><path style="opacity:1" fill="#ffe0d6" d="M 42.5,35.5 C 38.0117,45.305 32.345,54.305 25.5,62.5C 25.5,61.8333 25.5,61.1667 25.5,60.5C 30.2467,54.6813 34.2467,48.3479 37.5,41.5C 38.3382,41.1583 38.6716,40.4916 38.5,39.5C 39.5,37.8333 40.8333,36.5 42.5,35.5 Z"/></g>
<g><path style="opacity:1" fill="#fbdfd6" d="M 21.5,45.5 C 21.8333,45.5 22.1667,45.5 22.5,45.5C 22.5,46.1667 22.5,46.8333 22.5,47.5C 20.863,49.4752 19.1964,51.4752 17.5,53.5C 16.8333,53.5 16.5,53.1667 16.5,52.5C 18.5547,50.4451 20.2213,48.1117 21.5,45.5 Z"/></g>
<g><path style="opacity:1" fill="#fd6d40" d="M 37.5,41.5 C 34.2467,48.3479 30.2467,54.6813 25.5,60.5C 24.8333,59.1667 24.1667,57.8333 23.5,56.5C 23.6716,55.5084 23.3382,54.8417 22.5,54.5C 21.0813,53.5489 19.4147,53.2155 17.5,53.5C 19.1964,51.4752 20.863,49.4752 22.5,47.5C 23.8381,49.1128 25.5048,49.6128 27.5,49C 31.2762,47.0526 34.6096,44.5526 37.5,41.5 Z"/></g>
<g><path style="opacity:1" fill="#422d2b" d="M 92.5,20.5 C 85.9508,27.0889 80.4508,35.0889 76,44.5C 75.5774,43.0439 74.7441,42.5439 73.5,43C 71.1294,45.706 68.4628,48.0394 65.5,50C 66.056,50.3826 66.3893,50.8826 66.5,51.5C 65.0689,52.0819 63.7356,52.9152 62.5,54C 63.056,54.3826 63.3893,54.8826 63.5,55.5C 63.5654,55.9382 63.3988,56.2716 63,56.5C 62.2613,55.4258 61.2613,54.7591 60,54.5C 57.4398,55.53 54.9398,56.6966 52.5,58C 50.3918,60.0164 50.0584,62.1831 51.5,64.5C 50.1834,66.8762 50.8501,68.5429 53.5,69.5C 52.3065,70.2719 51.3065,71.2719 50.5,72.5C 49.8333,72.5 49.5,72.1667 49.5,71.5C 49.6655,67.4862 49.4988,63.4862 49,59.5C 42.3583,62.0355 35.525,63.7022 28.5,64.5C 31.0043,59.4854 34.0043,54.8187 37.5,50.5C 37.6567,51.8734 37.49,53.2068 37,54.5C 35.1217,56.0429 33.6217,57.8762 32.5,60C 54.8712,56.6481 72.2045,45.4814 84.5,26.5C 86.5567,24.9567 86.5567,23.9567 84.5,23.5C 87.1667,22.5 89.8333,21.5 92.5,20.5 Z"/></g>
<g><path style="opacity:1" fill="#f6734a" d="M 21.5,45.5 C 20.2213,48.1117 18.5547,50.4451 16.5,52.5C 15.7611,52.631 15.0944,52.4643 14.5,52C 17.0402,49.7953 19.2068,47.2953 21,44.5C 21.3988,44.7284 21.5654,45.0618 21.5,45.5 Z"/></g>
<g><path style="opacity:1" fill="#f5e3dd" d="M 111.5,50.5 C 112.058,51.7899 113.058,52.6232 114.5,53C 111.802,53.815 109.468,53.315 107.5,51.5C 107.369,50.6236 107.702,49.9569 108.5,49.5C 109.417,50.1272 110.417,50.4606 111.5,50.5 Z"/></g>
<g><path style="opacity:1" fill="#6d5753" d="M 119.5,52.5 C 117.844,54.0603 115.844,55.0603 113.5,55.5C 110.15,55.665 106.817,55.4983 103.5,55C 101.509,54.6264 99.842,53.793 98.5,52.5C 101.5,53.1667 104.5,53.8333 107.5,54.5C 107.5,53.5 107.5,52.5 107.5,51.5C 109.468,53.315 111.802,53.815 114.5,53C 113.058,52.6232 112.058,51.7899 111.5,50.5C 113.17,50.7512 114.67,51.4178 116,52.5C 116.167,52.1667 116.333,51.8333 116.5,51.5C 113.876,48.433 112.042,45.0997 111,41.5C 113.842,45.1967 116.675,48.8634 119.5,52.5 Z"/></g>
<g><path style="opacity:1" fill="#462f2b" d="M 128.5,65.5 C 126.09,58.4514 121.09,55.118 113.5,55.5C 115.844,55.0603 117.844,54.0603 119.5,52.5C 120.794,53.2899 121.961,54.2899 123,55.5C 123.595,48.8725 122.428,42.5392 119.5,36.5C 119.846,35.3044 120.346,35.3044 121,36.5C 125.445,45.1695 128.279,54.3362 129.5,64C 129.43,64.7648 129.097,65.2648 128.5,65.5 Z"/></g>
<g><path style="opacity:1" fill="#f1a68d" d="M 66.5,51.5 C 68.612,53.8701 67.9453,55.8701 64.5,57.5C 64.6716,56.5084 64.3382,55.8417 63.5,55.5C 63.3893,54.8826 63.056,54.3826 62.5,54C 63.7356,52.9152 65.0689,52.0819 66.5,51.5 Z"/></g>
<g><path style="opacity:0.302" fill="#675c3b" d="M 147.5,58.5 C 147.5,57.8333 147.5,57.1667 147.5,56.5C 150.32,55.5353 151.653,53.5353 151.5,50.5C 152.675,50.281 153.675,50.6143 154.5,51.5C 155.279,53.773 156.612,55.6063 158.5,57C 157.132,59.5666 155.632,62.0666 154,64.5C 152.117,63.3474 151.284,61.6807 151.5,59.5C 150.041,59.5674 148.708,59.2341 147.5,58.5 Z"/></g>
<g><path style="opacity:1" fill="#ece188" d="M 152.5,52.5 C 153.836,54.3068 155.503,55.8068 157.5,57C 155.951,58.214 154.785,59.714 154,61.5C 153.02,60.0186 151.853,58.6853 150.5,57.5C 151.95,56.1502 152.617,54.4835 152.5,52.5 Z"/></g>
<g><path style="opacity:1" fill="#9e645d" d="M 63.5,55.5 C 64.3382,55.8417 64.6716,56.5084 64.5,57.5C 62.5451,60.4562 60.0451,63.1229 57,65.5C 56.6174,64.944 56.1174,64.6107 55.5,64.5C 53.965,63.6457 52.6316,63.6457 51.5,64.5C 50.0584,62.1831 50.3918,60.0164 52.5,58C 54.9398,56.6966 57.4398,55.53 60,54.5C 61.2613,54.7591 62.2613,55.4258 63,56.5C 63.3988,56.2716 63.5654,55.9382 63.5,55.5 Z"/></g>
<g><path style="opacity:1" fill="#543f3b" d="M 74.5,48.5 C 71.9021,51.0289 70.4021,54.0289 70,57.5C 72.7947,56.2175 75.6281,56.2175 78.5,57.5C 74.0469,58.2542 69.7136,59.4208 65.5,61C 61.288,63.7403 57.288,66.5736 53.5,69.5C 54.968,68.2209 55.6347,66.5542 55.5,64.5C 56.1174,64.6107 56.6174,64.944 57,65.5C 60.0451,63.1229 62.5451,60.4562 64.5,57.5C 67.9453,55.8701 68.612,53.8701 66.5,51.5C 70.1704,51.6734 72.6704,50.0067 74,46.5C 74.4643,47.0944 74.631,47.7611 74.5,48.5 Z"/></g>
<g><path style="opacity:1" fill="#f2683c" d="M 42.5,35.5 C 43.5983,36.6009 43.765,37.9343 43,39.5C 41.1401,43.2198 39.3068,46.8864 37.5,50.5C 34.0043,54.8187 31.0043,59.4854 28.5,64.5C 27.391,64.4431 26.391,64.1098 25.5,63.5C 25.5,63.1667 25.5,62.8333 25.5,62.5C 32.345,54.305 38.0117,45.305 42.5,35.5 Z"/></g>
<g><path style="opacity:0.784" fill="#3a2522" d="M 127.5,6.5 C 129.708,7.02298 131.208,8.35631 132,10.5C 135.222,19.607 137.555,28.9403 139,38.5C 142.684,44.1977 145.518,50.1977 147.5,56.5C 147.5,57.1667 147.5,57.8333 147.5,58.5C 148.021,62.8609 148.688,67.1942 149.5,71.5C 147.751,74.2361 146.751,77.2361 146.5,80.5C 147.476,92.46 146.642,104.46 144,116.5C 146.002,114.497 147.502,112.164 148.5,109.5C 151.109,113.746 150.943,118.079 148,122.5C 142.667,126.5 137.333,126.5 132,122.5C 129.853,124.476 127.353,125.809 124.5,126.5C 122.849,124.265 121.516,124.265 120.5,126.5C 119.596,125.791 119.263,124.791 119.5,123.5C 121.929,123.415 123.929,122.415 125.5,120.5C 127.295,115.654 128.295,110.654 128.5,105.5C 128.833,104.167 129.167,102.833 129.5,101.5C 130.167,101.5 130.5,101.833 130.5,102.5C 129.921,110.132 128.421,117.466 126,124.5C 132.536,120.617 136.869,114.951 139,107.5C 140.147,109.731 141.147,112.065 142,114.5C 144.035,106.958 145.202,99.2909 145.5,91.5C 145.5,90.8333 145.5,90.1667 145.5,89.5C 145.815,85.6286 145.482,81.9619 144.5,78.5C 144.248,73.4814 143.748,68.4814 143,63.5C 141.474,58.5368 140.474,53.5368 140,48.5C 142.59,53.2722 144.59,58.2722 146,63.5C 145.111,52.392 140.944,42.7254 133.5,34.5C 132.925,32.5887 131.925,30.922 130.5,29.5C 131.632,23.3019 131.465,16.9686 130,10.5C 129.583,9.24402 128.75,8.57735 127.5,8.5C 127.5,7.83333 127.5,7.16667 127.5,6.5 Z"/></g>
<g><path style="opacity:1" fill="#9f665f" d="M 49.5,71.5 C 48.79,73.8927 48.1233,76.3927 47.5,79C 43.9069,80.7807 40.2402,82.2807 36.5,83.5C 36.7845,85.4147 36.4511,87.0813 35.5,88.5C 34.9969,81.4599 34.1636,74.4599 33,67.5C 31.7559,76.0912 31.0892,84.7579 31,93.5C 30.6667,92.8333 30.3333,92.1667 30,91.5C 28.7356,82.5462 28.2356,73.5462 28.5,64.5C 35.525,63.7022 42.3583,62.0355 49,59.5C 49.4988,63.4862 49.6655,67.4862 49.5,71.5 Z"/></g>
<g><path style="opacity:1" fill="#9e655e" d="M 23.5,56.5 C 24.1667,57.8333 24.8333,59.1667 25.5,60.5C 25.5,61.1667 25.5,61.8333 25.5,62.5C 25.5,62.8333 25.5,63.1667 25.5,63.5C 28.1667,70.5 28.1667,77.5 25.5,84.5C 23.8267,85.343 22.66,86.6763 22,88.5C 21.6667,88.1667 21.3333,87.8333 21,87.5C 20.3333,79.5 20.3333,71.5 21,63.5C 21.1534,60.8494 21.9867,58.5161 23.5,56.5 Z"/></g>
<g><path style="opacity:1" fill="#3f3331" d="M 129.5,69.5 C 130.531,71.9608 131.198,74.6275 131.5,77.5C 131.826,86.0168 131.493,94.3501 130.5,102.5C 130.5,101.833 130.167,101.5 129.5,101.5C 130.802,92.8924 130.802,84.2257 129.5,75.5C 128.777,78.0698 127.61,80.4032 126,82.5C 126.456,79.5716 126.456,76.5716 126,73.5C 123.574,70.5251 120.74,69.1918 117.5,69.5C 115.532,68.181 113.532,68.181 111.5,69.5C 110.642,71.9009 109.309,73.9009 107.5,75.5C 107.279,72.1577 108.113,68.8243 110,65.5C 113.694,65.5562 117.527,65.7229 121.5,66C 123.49,67.7506 125.823,68.7506 128.5,69C 127.289,69.8928 127.289,70.7261 128.5,71.5C 129.298,71.0431 129.631,70.3764 129.5,69.5 Z"/></g>
<g><path style="opacity:1" fill="#174b71" d="M 55.5,64.5 C 55.6347,66.5542 54.968,68.2209 53.5,69.5C 50.8501,68.5429 50.1834,66.8762 51.5,64.5C 52.6316,63.6457 53.965,63.6457 55.5,64.5 Z"/></g>
<g><path style="opacity:1" fill="#372939" d="M 117.5,69.5 C 118.289,69.7828 118.956,70.2828 119.5,71C 118.244,71.4169 117.577,72.2502 117.5,73.5C 116.596,74.209 116.263,75.209 116.5,76.5C 115.442,75.3998 114.608,74.0664 114,72.5C 113.79,74.0581 113.29,75.3915 112.5,76.5C 112.631,75.7611 112.464,75.0944 112,74.5C 107.436,77.853 106.27,82.1863 108.5,87.5C 106.983,85.5379 106.316,83.2046 106.5,80.5C 106.507,78.6307 106.84,76.964 107.5,75.5C 109.309,73.9009 110.642,71.9009 111.5,69.5C 113.532,68.181 115.532,68.181 117.5,69.5 Z"/></g>
<g><path style="opacity:1" fill="#3a302d" d="M 70.5,72.5 C 69.1266,72.3433 67.7932,72.51 66.5,73C 65.2949,74.3756 63.9616,75.5423 62.5,76.5C 62.5654,76.0618 62.3988,75.7284 62,75.5C 57.5296,79.0497 56.0296,83.3831 57.5,88.5C 58.5624,89.5754 58.5624,90.5754 57.5,91.5C 55.8076,89.6414 54.3076,87.6414 53,85.5C 52.5172,86.448 52.3505,87.448 52.5,88.5C 51.5386,86.7354 51.2053,84.7354 51.5,82.5C 54.3091,82.0423 54.9758,80.7089 53.5,78.5C 54.1667,77.8333 54.8333,77.1667 55.5,76.5C 58.3904,73.4474 61.7238,70.9474 65.5,69C 72.3122,67.1625 77.6456,68.9958 81.5,74.5C 81.1667,74.8333 80.8333,75.1667 80.5,75.5C 77.6776,72.0547 74.3443,71.0547 70.5,72.5 Z"/></g>
<g><path style="opacity:1" fill="#f0cf6b" d="M 116.5,76.5 C 117.183,78.1765 118.517,78.8432 120.5,78.5C 120.5,79.1667 120.5,79.8333 120.5,80.5C 118.973,80.427 117.973,81.0937 117.5,82.5C 116.549,83.9187 116.216,85.5853 116.5,87.5C 115.833,87.5 115.167,87.5 114.5,87.5C 114.552,84.0477 112.885,81.881 109.5,81C 111.141,79.871 112.141,78.371 112.5,76.5C 113.29,75.3915 113.79,74.0581 114,72.5C 114.608,74.0664 115.442,75.3998 116.5,76.5 Z"/></g>
<g><path style="opacity:1" fill="#6c477c" d="M 117.5,73.5 C 117.5,74.5 117.5,75.5 117.5,76.5C 118.833,76.5 120.167,76.5 121.5,76.5C 121.672,77.4916 121.338,78.1583 120.5,78.5C 118.517,78.8432 117.183,78.1765 116.5,76.5C 116.263,75.209 116.596,74.209 117.5,73.5 Z"/></g>
<g><path style="opacity:1" fill="#e9df86" d="M 18.5,79.5 C 18.8333,80.1667 19.1667,80.8333 19.5,81.5C 17.3379,81.8972 16.0046,83.2305 15.5,85.5C 14.483,83.1629 12.8163,81.4963 10.5,80.5C 12.7092,79.937 14.2092,78.6036 15,76.5C 15.7589,78.0629 16.9256,79.0629 18.5,79.5 Z"/></g>
<g><path style="opacity:1" fill="#e7d7d1" d="M 53.5,78.5 C 54.9758,80.7089 54.3091,82.0423 51.5,82.5C 51.3398,80.8008 51.5065,79.1341 52,77.5C 52.3826,78.056 52.8826,78.3893 53.5,78.5 Z"/></g>
<g><path style="opacity:1" fill="#784d8e" d="M 112.5,76.5 C 112.141,78.371 111.141,79.871 109.5,81C 112.885,81.881 114.552,84.0477 114.5,87.5C 113.609,86.7387 112.942,85.7387 112.5,84.5C 111.675,83.6143 110.675,83.281 109.5,83.5C 109.5,84.8333 109.5,86.1667 109.5,87.5C 109.167,87.5 108.833,87.5 108.5,87.5C 106.27,82.1863 107.436,77.853 112,74.5C 112.464,75.0944 112.631,75.7611 112.5,76.5 Z"/></g>
<g><path style="opacity:0.941" fill="#544331" d="M 18.5,78.5 C 18.5,78.8333 18.5,79.1667 18.5,79.5C 16.9256,79.0629 15.7589,78.0629 15,76.5C 14.2092,78.6036 12.7092,79.937 10.5,80.5C 12.8163,81.4963 14.483,83.1629 15.5,85.5C 16.0046,83.2305 17.3379,81.8972 19.5,81.5C 19.1667,82.1667 18.8333,82.8333 18.5,83.5C 17.9348,85.3864 16.9348,87.0531 15.5,88.5C 13.9098,85.2392 11.5765,82.5726 8.5,80.5C 9.38054,79.0295 10.7139,78.1962 12.5,78C 13.0495,76.1554 14.0495,74.6554 15.5,73.5C 16.6963,75.1446 17.6963,76.8113 18.5,78.5 Z"/></g>
<g><path style="opacity:1" fill="#433048" d="M 70.5,72.5 C 72.4233,72.795 74.0899,73.6283 75.5,75C 73.5743,75.4224 72.5743,76.5891 72.5,78.5C 71.6618,78.8417 71.3284,79.5084 71.5,80.5C 70.6851,79.5707 69.8518,78.5707 69,77.5C 68.6401,79.6079 67.9734,81.6079 67,83.5C 66.3292,84.2524 65.4959,84.5858 64.5,84.5C 64.1667,85.1667 63.8333,85.8333 63.5,86.5C 62.4138,86.62 61.7472,87.2867 61.5,88.5C 61.9024,90.3002 62.5691,91.9668 63.5,93.5C 62.2502,93.4226 61.4169,92.756 61,91.5C 60.1785,88.8832 59.6785,86.2165 59.5,83.5C 60.3414,81.1879 61.3414,78.8546 62.5,76.5C 63.9616,75.5423 65.2949,74.3756 66.5,73C 67.7932,72.51 69.1266,72.3433 70.5,72.5 Z"/></g>
<g><path style="opacity:1" fill="#f2d06c" d="M 71.5,80.5 C 71.4142,81.4959 71.7476,82.3292 72.5,83C 76.3298,83.2757 76.9965,84.4424 74.5,86.5C 73.5084,86.3284 72.8417,86.6618 72.5,87.5C 71.5386,89.2646 71.2053,91.2646 71.5,93.5C 70.5,92.1667 69.5,90.8333 68.5,89.5C 67.9517,86.9162 66.285,85.9162 63.5,86.5C 63.8333,85.8333 64.1667,85.1667 64.5,84.5C 65.4959,84.5858 66.3292,84.2524 67,83.5C 67.9734,81.6079 68.6401,79.6079 69,77.5C 69.8518,78.5707 70.6851,79.5707 71.5,80.5 Z"/></g>
<g><path style="opacity:1" fill="#734b89" d="M 72.5,78.5 C 74.0654,80.7188 76.0654,81.0521 78.5,79.5C 79.8077,83.3147 79.8077,86.9813 78.5,90.5C 78.0432,88.2273 76.7099,86.894 74.5,86.5C 76.9965,84.4424 76.3298,83.2757 72.5,83C 71.7476,82.3292 71.4142,81.4959 71.5,80.5C 71.3284,79.5084 71.6618,78.8417 72.5,78.5 Z"/></g>
<g><path style="opacity:1" fill="#453a4a" d="M 122.5,85.5 C 122.662,83.4727 122.495,81.4727 122,79.5C 121.617,80.056 121.117,80.3893 120.5,80.5C 120.5,79.8333 120.5,79.1667 120.5,78.5C 121.338,78.1583 121.672,77.4916 121.5,76.5C 121.435,76.0618 121.601,75.7284 122,75.5C 123.684,78.8944 123.851,82.2277 122.5,85.5 Z"/></g>
<g><path style="opacity:1" fill="#a8a7a6" d="M 62.5,76.5 C 61.3414,78.8546 60.3414,81.1879 59.5,83.5C 57.7868,84.6354 57.1201,86.302 57.5,88.5C 56.0296,83.3831 57.5296,79.0497 62,75.5C 62.3988,75.7284 62.5654,76.0618 62.5,76.5 Z"/></g>
<g><path style="opacity:1" fill="#7c509a" d="M 122.5,85.5 C 122.167,85.5 121.833,85.5 121.5,85.5C 121.306,83.0882 119.973,82.0882 117.5,82.5C 117.973,81.0937 118.973,80.427 120.5,80.5C 121.117,80.3893 121.617,80.056 122,79.5C 122.495,81.4727 122.662,83.4727 122.5,85.5 Z"/></g>
<g><path style="opacity:1" fill="#8651aa" d="M 64.5,84.5 C 63.5041,84.4142 62.6708,84.7476 62,85.5C 61.3013,82.6784 62.4679,81.0117 65.5,80.5C 65.8333,80.8333 66.1667,81.1667 66.5,81.5C 65.8075,82.5178 65.1408,83.5178 64.5,84.5 Z"/></g>
<g><path style="opacity:1" fill="#b192d5" d="M 117.5,82.5 C 119.973,82.0882 121.306,83.0882 121.5,85.5C 121.5,86.1667 121.5,86.8333 121.5,87.5C 120.185,88.4756 118.852,89.4756 117.5,90.5C 116.614,89.675 116.281,88.675 116.5,87.5C 116.216,85.5853 116.549,83.9187 117.5,82.5 Z"/></g>
<g><path style="opacity:1" fill="#be9de9" d="M 114.5,87.5 C 114.414,88.4959 114.748,89.3292 115.5,90C 112.706,90.9724 110.706,90.1391 109.5,87.5C 109.5,86.1667 109.5,84.8333 109.5,83.5C 110.675,83.281 111.675,83.6143 112.5,84.5C 112.942,85.7387 113.609,86.7387 114.5,87.5 Z"/></g>
<g><path style="opacity:1" fill="#ae8bda" d="M 74.5,86.5 C 76.7099,86.894 78.0432,88.2273 78.5,90.5C 77.5714,91.9361 76.4048,93.2695 75,94.5C 73.0972,92.559 72.2639,90.2257 72.5,87.5C 72.8417,86.6618 73.5084,86.3284 74.5,86.5 Z"/></g>
<g><path style="opacity:1" fill="#86574f" d="M 131.5,77.5 C 135.422,79.1587 139.422,80.8254 143.5,82.5C 144.429,81.3112 144.762,79.9778 144.5,78.5C 145.482,81.9619 145.815,85.6286 145.5,89.5C 144.5,89.5 143.5,89.5 142.5,89.5C 142.762,88.0222 142.429,86.6888 141.5,85.5C 140.766,87.8149 139.432,89.6482 137.5,91C 139.552,91.9299 141.052,93.4299 142,95.5C 142.498,93.4556 143.665,92.1223 145.5,91.5C 145.202,99.2909 144.035,106.958 142,114.5C 141.147,112.065 140.147,109.731 139,107.5C 136.869,114.951 132.536,120.617 126,124.5C 128.421,117.466 129.921,110.132 130.5,102.5C 131.493,94.3501 131.826,86.0168 131.5,77.5 Z"/></g>
<g><path style="opacity:1" fill="#e4db84" d="M 145.5,89.5 C 145.5,90.1667 145.5,90.8333 145.5,91.5C 143.665,92.1223 142.498,93.4556 142,95.5C 141.052,93.4299 139.552,91.9299 137.5,91C 139.432,89.6482 140.766,87.8149 141.5,85.5C 142.429,86.6888 142.762,88.0222 142.5,89.5C 143.5,89.5 144.5,89.5 145.5,89.5 Z"/></g>
<g><path style="opacity:1" fill="#472e2a" d="M 25.5,63.5 C 26.391,64.1098 27.391,64.4431 28.5,64.5C 28.2356,73.5462 28.7356,82.5462 30,91.5C 30.3333,92.1667 30.6667,92.8333 31,93.5C 31.0892,84.7579 31.7559,76.0912 33,67.5C 34.1636,74.4599 34.9969,81.4599 35.5,88.5C 36.8874,96.6605 38.8874,104.661 41.5,112.5C 38.0081,105.541 35.1748,98.2076 33,90.5C 32.8078,92.5767 32.3078,94.5767 31.5,96.5C 30.3333,94.8333 29.1667,93.1667 28,91.5C 27.6667,91.8333 27.3333,92.1667 27,92.5C 27.4559,89.5716 27.4559,86.5716 27,83.5C 26.6174,84.056 26.1174,84.3893 25.5,84.5C 28.1667,77.5 28.1667,70.5 25.5,63.5 Z"/></g>
<g><path style="opacity:1" fill="#a47ecb" d="M 63.5,86.5 C 66.285,85.9162 67.9517,86.9162 68.5,89.5C 68.5,90.5 68.5,91.5 68.5,92.5C 67.596,93.209 67.2627,94.209 67.5,95.5C 66.391,95.4431 65.391,95.1098 64.5,94.5C 64.5,93.8333 64.1667,93.5 63.5,93.5C 62.5691,91.9668 61.9024,90.3002 61.5,88.5C 61.7472,87.2867 62.4138,86.62 63.5,86.5 Z"/></g>
<g><path style="opacity:1" fill="#726564" d="M 108.5,87.5 C 108.833,87.5 109.167,87.5 109.5,87.5C 110.706,90.1391 112.706,90.9724 115.5,90C 114.748,89.3292 114.414,88.4959 114.5,87.5C 115.167,87.5 115.833,87.5 116.5,87.5C 116.281,88.675 116.614,89.675 117.5,90.5C 118.852,89.4756 120.185,88.4756 121.5,87.5C 121.5,88.1667 121.5,88.8333 121.5,89.5C 119.539,91.3122 117.206,92.3122 114.5,92.5C 111.268,92.2283 109.268,90.5616 108.5,87.5 Z"/></g>
<g><path style="opacity:1" fill="#eadef9" d="M 68.5,92.5 C 71.3341,94.649 71.0007,95.649 67.5,95.5C 67.2627,94.209 67.596,93.209 68.5,92.5 Z"/></g>
<g><path style="opacity:1" fill="#fcccc4" d="M 121.5,89.5 C 125.902,91.0778 128.236,94.2444 128.5,99C 127.189,105.637 123.189,108.304 116.5,107C 110.845,102.887 110.179,98.0533 114.5,92.5C 117.206,92.3122 119.539,91.3122 121.5,89.5 Z"/></g>
<g><path style="opacity:1" fill="#776a6d" d="M 68.5,89.5 C 69.5,90.8333 70.5,92.1667 71.5,93.5C 71.8807,94.9311 72.8807,95.7645 74.5,96C 71.1995,97.8789 67.8662,97.8789 64.5,96C 63.2617,95.31 63.2617,94.81 64.5,94.5C 65.391,95.1098 66.391,95.4431 67.5,95.5C 71.0007,95.649 71.3341,94.649 68.5,92.5C 68.5,91.5 68.5,90.5 68.5,89.5 Z"/></g>
<g><path style="opacity:1" fill="#8b5952" d="M 41.5,112.5 C 41.9784,116.338 40.9784,119.671 38.5,122.5C 33.6151,127.777 27.6151,129.943 20.5,129C 18.9632,127.89 18.2965,126.39 18.5,124.5C 20.5,124.5 22.5,124.5 24.5,124.5C 25.7735,115.104 25.2735,105.771 23,96.5C 20.2774,99.5568 17.944,102.89 16,106.5C 15.4291,102.955 16.0958,99.6221 18,96.5C 20.7512,92.598 23.2512,88.598 25.5,84.5C 26.1174,84.3893 26.6174,84.056 27,83.5C 27.4559,86.5716 27.4559,89.5716 27,92.5C 27.3333,92.1667 27.6667,91.8333 28,91.5C 29.1667,93.1667 30.3333,94.8333 31.5,96.5C 32.3078,94.5767 32.8078,92.5767 33,90.5C 35.1748,98.2076 38.0081,105.541 41.5,112.5 Z"/></g>
<g><path style="opacity:1" fill="#8d736d" d="M 101.5,112.5 C 101.822,110.278 101.155,108.444 99.5,107C 95.5406,107.158 91.5406,107.325 87.5,107.5C 91.3845,103.774 96.0511,102.607 101.5,104C 104.003,106.824 104.003,109.658 101.5,112.5 Z"/></g>
<g><path style="opacity:1" fill="#fdc9c1" d="M 65.5,98.5 C 75.3966,98.1819 77.7299,102.015 72.5,110C 64.6851,112.522 61.5184,109.689 63,101.5C 64.045,100.627 64.8783,99.6266 65.5,98.5 Z"/></g>
<g><path style="opacity:1" fill="#fca696" d="M 101.5,112.5 C 96.9759,115.927 92.3092,116.26 87.5,113.5C 86.3586,111.451 86.3586,109.451 87.5,107.5C 91.5406,107.325 95.5406,107.158 99.5,107C 101.155,108.444 101.822,110.278 101.5,112.5 Z"/></g>
<g><path style="opacity:1" fill="#85564f" d="M 49.5,71.5 C 49.5,72.1667 49.8333,72.5 50.5,72.5C 50.3838,75.9103 52.0504,77.2436 55.5,76.5C 54.8333,77.1667 54.1667,77.8333 53.5,78.5C 52.8826,78.3893 52.3826,78.056 52,77.5C 51.5065,79.1341 51.3398,80.8008 51.5,82.5C 51.2053,84.7354 51.5386,86.7354 52.5,88.5C 54.6427,97.2517 57.9761,105.585 62.5,113.5C 61.4265,114.251 61.2599,115.251 62,116.5C 64.8437,120.862 67.6771,125.195 70.5,129.5C 69.0813,130.451 67.4147,130.784 65.5,130.5C 59.0249,129.337 53.8583,126.004 50,120.5C 50.3744,122.769 50.3744,125.102 50,127.5C 49.6232,126.058 48.7899,125.058 47.5,124.5C 46.0078,120.182 44.0078,116.182 41.5,112.5C 38.8874,104.661 36.8874,96.6605 35.5,88.5C 36.4511,87.0813 36.7845,85.4147 36.5,83.5C 40.2402,82.2807 43.9069,80.7807 47.5,79C 48.1233,76.3927 48.79,73.8927 49.5,71.5 Z"/></g>
<g><path style="opacity:1" fill="#ece389" d="M 42.5,85.5 C 43.7794,87.1233 45.1128,88.79 46.5,90.5C 45.0944,92.026 43.9277,93.6927 43,95.5C 42.8333,92.6667 41.3333,91.1667 38.5,91C 40.8189,89.8526 42.1523,88.0193 42.5,85.5 Z"/></g>
<g><path style="opacity:1" fill="#826a65" d="M 87.5,107.5 C 86.3586,109.451 86.3586,111.451 87.5,113.5C 86.0532,112.866 85.3866,111.699 85.5,110C 85.6842,108.624 86.3509,107.791 87.5,107.5 Z"/></g>
<g><path style="opacity:1" fill="#835e57" d="M 101.5,112.5 C 99.7614,115.37 97.0947,116.703 93.5,116.5C 90.6923,116.922 88.6923,115.922 87.5,113.5C 92.3092,116.26 96.9759,115.927 101.5,112.5 Z"/></g>
<g><path style="opacity:1" fill="#452d28" d="M 41.5,112.5 C 44.0078,116.182 46.0078,120.182 47.5,124.5C 47.4894,126.017 46.8228,127.184 45.5,128C 42.7025,129.914 39.7025,130.914 36.5,131C 38.604,128.256 39.2707,125.423 38.5,122.5C 40.9784,119.671 41.9784,116.338 41.5,112.5 Z"/></g>
<g><path style="opacity:1" fill="#47322d" d="M 62.5,113.5 C 74.7869,121.237 88.1203,123.904 102.5,121.5C 101.833,122.167 101.167,122.833 100.5,123.5C 100.167,123.5 99.8333,123.5 99.5,123.5C 97.5853,123.216 95.9187,123.549 94.5,124.5C 94.1667,124.5 93.8333,124.5 93.5,124.5C 91.7354,123.539 89.7354,123.205 87.5,123.5C 86.1667,123.5 85.5,124.167 85.5,125.5C 84.2921,124.766 82.9587,124.433 81.5,124.5C 81.9175,123.778 82.5842,123.278 83.5,123C 81.5,122.5 79.5,122 77.5,121.5C 76.2867,121.747 75.62,122.414 75.5,123.5C 74.596,122.791 74.2627,121.791 74.5,120.5C 69.0175,122.123 68.3508,124.956 72.5,129C 72.2716,129.399 71.9382,129.565 71.5,129.5C 71.1667,129.5 70.8333,129.5 70.5,129.5C 67.6771,125.195 64.8437,120.862 62,116.5C 61.2599,115.251 61.4265,114.251 62.5,113.5 Z"/></g>
<g><path style="opacity:1" fill="#f1dcd6" d="M 75.5,123.5 C 75.702,125.95 75.3686,128.283 74.5,130.5C 73.209,130.737 72.209,130.404 71.5,129.5C 71.9382,129.565 72.2716,129.399 72.5,129C 68.3508,124.956 69.0175,122.123 74.5,120.5C 74.2627,121.791 74.596,122.791 75.5,123.5 Z"/></g>
<g><path style="opacity:1" fill="#b84a1e" d="M 102.5,121.5 C 103.5,121.5 104.5,121.5 105.5,121.5C 105.737,122.791 105.404,123.791 104.5,124.5C 103.432,123.566 102.099,123.232 100.5,123.5C 101.167,122.833 101.833,122.167 102.5,121.5 Z"/></g>
<g><path style="opacity:1" fill="#a23e22" d="M 81.5,124.5 C 81.1667,124.5 80.8333,124.5 80.5,124.5C 78.7085,124.634 77.0418,124.301 75.5,123.5C 75.62,122.414 76.2867,121.747 77.5,121.5C 79.5,122 81.5,122.5 83.5,123C 82.5842,123.278 81.9175,123.778 81.5,124.5 Z"/></g>
<g><path style="opacity:1" fill="#275886" d="M 87.5,123.5 C 89.7354,123.205 91.7354,123.539 93.5,124.5C 92.0048,124.989 90.6715,125.655 89.5,126.5C 88.0937,126.027 87.427,125.027 87.5,123.5 Z"/></g>
<g><path style="opacity:1" fill="#9e9897" d="M 99.5,123.5 C 99.5,124.167 99.5,124.833 99.5,125.5C 98.6618,125.842 98.3284,126.508 98.5,127.5C 97.8333,127.833 97.1667,128.167 96.5,128.5C 96.5,127.167 95.8333,126.5 94.5,126.5C 94.5,125.833 94.5,125.167 94.5,124.5C 95.9187,123.549 97.5853,123.216 99.5,123.5 Z"/></g>
<g><path style="opacity:1" fill="#315d88" d="M 99.5,123.5 C 99.8333,123.5 100.167,123.5 100.5,123.5C 102.099,123.232 103.432,123.566 104.5,124.5C 104.5,125.167 104.5,125.833 104.5,126.5C 103.167,126.167 101.833,125.833 100.5,125.5C 100.167,125.5 99.8333,125.5 99.5,125.5C 99.5,124.833 99.5,124.167 99.5,123.5 Z"/></g>
<g><path style="opacity:1" fill="#f3ded8" d="M 108.5,122.5 C 110.167,122.5 111.833,122.5 113.5,122.5C 115.025,124.216 116.025,126.216 116.5,128.5C 115.766,129.708 115.433,131.041 115.5,132.5C 112.354,136.559 108.687,137.225 104.5,134.5C 104.737,133.209 104.404,132.209 103.5,131.5C 103.5,130.5 103.5,129.5 103.5,128.5C 105.288,128.785 106.955,128.452 108.5,127.5C 107.675,126.614 106.675,126.281 105.5,126.5C 105.833,125.833 106.167,125.167 106.5,124.5C 110.245,125.812 110.911,125.146 108.5,122.5 Z"/></g>
<g><path style="opacity:1" fill="#e3d0cb" d="M 80.5,124.5 C 80.8333,124.5 81.1667,124.5 81.5,124.5C 82.9587,124.433 84.2921,124.766 85.5,125.5C 87.0981,127.698 88.4314,130.031 89.5,132.5C 89.6945,134.635 89.3612,136.968 88.5,139.5C 84.912,141.034 81.5786,140.534 78.5,138C 77.7476,137.329 77.4142,136.496 77.5,135.5C 76.5325,132.555 76.3658,129.555 77,126.5C 78.3024,125.915 79.469,125.249 80.5,124.5 Z"/></g>
<g><path style="opacity:1" fill="#d54013" d="M 93.5,124.5 C 93.8333,124.5 94.1667,124.5 94.5,124.5C 94.5,125.167 94.5,125.833 94.5,126.5C 94.1667,126.5 93.8333,126.5 93.5,126.5C 92.5178,127.141 91.5178,127.807 90.5,128.5C 89.7025,128.043 89.3691,127.376 89.5,126.5C 90.6715,125.655 92.0048,124.989 93.5,124.5 Z"/></g>
<g><path style="opacity:1" fill="#896459" d="M 75.5,123.5 C 77.0418,124.301 78.7085,124.634 80.5,124.5C 79.469,125.249 78.3024,125.915 77,126.5C 76.3658,129.555 76.5325,132.555 77.5,135.5C 76.8333,135.167 76.1667,134.833 75.5,134.5C 75.1667,134.5 74.8333,134.5 74.5,134.5C 73.4324,133.566 72.099,133.232 70.5,133.5C 71.6085,132.71 72.9419,132.21 74.5,132C 75.7383,131.31 75.7383,130.81 74.5,130.5C 75.3686,128.283 75.702,125.95 75.5,123.5 Z"/></g>
<g><path style="opacity:0.559" fill="#33221f" d="M 22.5,54.5 C 23.3382,54.8417 23.6716,55.5084 23.5,56.5C 21.9867,58.5161 21.1534,60.8494 21,63.5C 20.3333,71.5 20.3333,79.5 21,87.5C 21.3333,87.8333 21.6667,88.1667 22,88.5C 22.66,86.6763 23.8267,85.343 25.5,84.5C 23.2512,88.598 20.7512,92.598 18,96.5C 16.0958,99.6221 15.4291,102.955 16,106.5C 17.944,102.89 20.2774,99.5568 23,96.5C 25.2735,105.771 25.7735,115.104 24.5,124.5C 22.5,124.5 20.5,124.5 18.5,124.5C 18.2965,126.39 18.9632,127.89 20.5,129C 27.6151,129.943 33.6151,127.777 38.5,122.5C 39.2707,125.423 38.604,128.256 36.5,131C 39.7025,130.914 42.7025,129.914 45.5,128C 46.8228,127.184 47.4894,126.017 47.5,124.5C 48.7899,125.058 49.6232,126.058 50,127.5C 50.3744,125.102 50.3744,122.769 50,120.5C 53.8583,126.004 59.0249,129.337 65.5,130.5C 65.5,131.5 65.5,132.5 65.5,133.5C 66.5,133.5 67.5,133.5 68.5,133.5C 63.8934,134.314 62.2268,136.98 63.5,141.5C 62.2438,141.539 61.2438,141.039 60.5,140C 61.5619,137.209 62.8952,134.543 64.5,132C 62.3365,131.567 60.3365,132.067 58.5,133.5C 56.9446,133.278 55.6113,132.611 54.5,131.5C 53.914,131.709 53.414,132.043 53,132.5C 51.3333,130.833 49.6667,129.167 48,127.5C 44.2697,131.63 39.7697,133.296 34.5,132.5C 35.5896,131.391 35.5896,130.391 34.5,129.5C 30.1101,132.732 25.4434,133.232 20.5,131C 14.5388,125.62 15.2054,122.953 22.5,123C 23.3802,121.644 23.7135,120.144 23.5,118.5C 14.9638,117.168 11.7972,112.168 14,103.5C 15.84,98.4896 17.6734,93.4896 19.5,88.5C 19.2716,86.7927 18.9383,85.126 18.5,83.5C 18.8333,82.8333 19.1667,82.1667 19.5,81.5C 19.1667,80.8333 18.8333,80.1667 18.5,79.5C 18.5,79.1667 18.5,78.8333 18.5,78.5C 18.1276,70.6117 19.1276,62.945 21.5,55.5C 21.5,54.8333 21.8333,54.5 22.5,54.5 Z M 21.5,100.5 C 22.699,105.201 23.699,110.034 24.5,115C 22.5911,115.448 21.4244,114.615 21,112.5C 18.8799,108.289 19.0465,104.289 21.5,100.5 Z"/></g>
<g><path style="opacity:1" fill="#ba8776" d="M 116.5,128.5 C 118.199,128.34 119.866,128.506 121.5,129C 122.252,129.671 122.586,130.504 122.5,131.5C 120.517,131.157 119.183,131.824 118.5,133.5C 117.609,132.89 116.609,132.557 115.5,132.5C 115.433,131.041 115.766,129.708 116.5,128.5 Z"/></g>
<g><path style="opacity:1" fill="#4a5b6f" d="M 70.5,129.5 C 70.8333,129.5 71.1667,129.5 71.5,129.5C 72.209,130.404 73.209,130.737 74.5,130.5C 75.7383,130.81 75.7383,131.31 74.5,132C 72.9419,132.21 71.6085,132.71 70.5,133.5C 69.8333,133.5 69.1667,133.5 68.5,133.5C 67.5,133.5 66.5,133.5 65.5,133.5C 65.5,132.5 65.5,131.5 65.5,130.5C 67.4147,130.784 69.0813,130.451 70.5,129.5 Z"/></g>
<g><path style="opacity:1" fill="#9e886e" d="M 87.5,123.5 C 87.427,125.027 88.0937,126.027 89.5,126.5C 89.3691,127.376 89.7025,128.043 90.5,128.5C 91.5178,127.807 92.5178,127.141 93.5,126.5C 92.962,128.117 92.6287,129.784 92.5,131.5C 93.8333,131.5 95.1667,131.5 96.5,131.5C 97.9473,132.885 98.9473,132.552 99.5,130.5C 103.113,129.589 103.446,127.922 100.5,125.5C 101.833,125.833 103.167,126.167 104.5,126.5C 104.833,126.5 105.167,126.5 105.5,126.5C 106.675,126.281 107.675,126.614 108.5,127.5C 106.955,128.452 105.288,128.785 103.5,128.5C 103.5,129.5 103.5,130.5 103.5,131.5C 102.026,133.137 100.192,134.137 98,134.5C 95.1776,133.725 92.3443,133.058 89.5,132.5C 88.4314,130.031 87.0981,127.698 85.5,125.5C 85.5,124.167 86.1667,123.5 87.5,123.5 Z"/></g>
<g><path style="opacity:1" fill="#ece8e7" d="M 98.5,127.5 C 99.1098,128.391 99.4431,129.391 99.5,130.5C 98.9473,132.552 97.9473,132.885 96.5,131.5C 96.5,130.5 96.5,129.5 96.5,128.5C 97.1667,128.167 97.8333,127.833 98.5,127.5 Z"/></g>
<g><path style="opacity:1" fill="#11659f" d="M 93.5,126.5 C 93.8333,126.5 94.1667,126.5 94.5,126.5C 95.8333,126.5 96.5,127.167 96.5,128.5C 96.5,129.5 96.5,130.5 96.5,131.5C 95.1667,131.5 93.8333,131.5 92.5,131.5C 92.6287,129.784 92.962,128.117 93.5,126.5 Z"/></g>
<g><path style="opacity:1" fill="#ed4410" d="M 99.5,125.5 C 99.8333,125.5 100.167,125.5 100.5,125.5C 103.446,127.922 103.113,129.589 99.5,130.5C 99.4431,129.391 99.1098,128.391 98.5,127.5C 98.3284,126.508 98.6618,125.842 99.5,125.5 Z"/></g>
<g><path style="opacity:1" fill="#f5f8f9" d="M 115.5,132.5 C 116.609,132.557 117.609,132.89 118.5,133.5C 119.11,134.391 119.443,135.391 119.5,136.5C 117.896,137.287 117.229,138.62 117.5,140.5C 113.864,141.326 110.197,141.992 106.5,142.5C 105.489,140.598 105.322,138.598 106,136.5C 110.539,138.312 113.705,136.979 115.5,132.5 Z"/></g>
<g><path style="opacity:1" fill="#dc663e" d="M 122.5,131.5 C 123.478,131.811 124.145,132.478 124.5,133.5C 122.54,134.519 120.54,134.519 118.5,133.5C 119.183,131.824 120.517,131.157 122.5,131.5 Z"/></g>
<g><path style="opacity:1" fill="#e08262" d="M 68.5,133.5 C 69.1667,133.5 69.8333,133.5 70.5,133.5C 72.099,133.232 73.4324,133.566 74.5,134.5C 72.2574,136.838 71.9241,139.504 73.5,142.5C 71.8333,142.5 70.1667,142.5 68.5,142.5C 67.0813,141.549 65.4147,141.216 63.5,141.5C 62.2268,136.98 63.8934,134.314 68.5,133.5 Z"/></g>
<g><path style="opacity:1" fill="#f5f7f9" d="M 75.5,134.5 C 76.1667,134.833 76.8333,135.167 77.5,135.5C 77.4142,136.496 77.7476,137.329 78.5,138C 81.5786,140.534 84.912,141.034 88.5,139.5C 88.5,139.833 88.5,140.167 88.5,140.5C 88.5,141.833 88.5,143.167 88.5,144.5C 85.1501,144.665 81.8168,144.498 78.5,144C 74.9899,141.51 73.9899,138.344 75.5,134.5 Z"/></g>
<g><path style="opacity:1" fill="#e88664" d="M 90.5,134.5 C 92.8825,136.046 95.5491,136.713 98.5,136.5C 100.006,142.731 100.673,149.064 100.5,155.5C 97.9039,156.265 95.2372,156.599 92.5,156.5C 91.7375,155.732 90.7375,155.232 89.5,155C 90.448,154.517 91.448,154.351 92.5,154.5C 92.5,153.5 92.5,152.5 92.5,151.5C 91.8333,145.833 91.1667,140.167 90.5,134.5 Z"/></g>
<g><path style="opacity:1" fill="#c2370f" d="M 103.5,131.5 C 102.011,134.232 101.345,137.232 101.5,140.5C 102.172,145.172 102.839,149.839 103.5,154.5C 102.609,155.11 101.609,155.443 100.5,155.5C 100.673,149.064 100.006,142.731 98.5,136.5C 95.5491,136.713 92.8825,136.046 90.5,134.5C 90.1667,133.833 89.8333,133.167 89.5,132.5C 92.3443,133.058 95.1776,133.725 98,134.5C 100.192,134.137 102.026,133.137 103.5,131.5 Z"/></g>
<g><path style="opacity:1" fill="#7f7471" d="M 115.5,132.5 C 113.705,136.979 110.539,138.312 106,136.5C 105.322,138.598 105.489,140.598 106.5,142.5C 106.5,142.833 106.5,143.167 106.5,143.5C 105.883,143.389 105.383,143.056 105,142.5C 104.503,139.854 104.336,137.187 104.5,134.5C 108.687,137.225 112.354,136.559 115.5,132.5 Z"/></g>
<g><path style="opacity:1" fill="#306083" d="M 119.5,136.5 C 119.167,137.833 118.833,139.167 118.5,140.5C 115.925,142.575 112.925,143.909 109.5,144.5C 108.833,144.5 108.167,144.5 107.5,144.5C 106.833,144.5 106.5,144.167 106.5,143.5C 106.5,143.167 106.5,142.833 106.5,142.5C 110.197,141.992 113.864,141.326 117.5,140.5C 117.229,138.62 117.896,137.287 119.5,136.5 Z"/></g>
<g><path style="opacity:1" fill="#f4dfd9" d="M 118.5,140.5 C 124.12,145.052 124.787,150.219 120.5,156C 116.412,156.623 113.412,155.123 111.5,151.5C 110.067,149.442 109.4,147.108 109.5,144.5C 112.925,143.909 115.925,142.575 118.5,140.5 Z"/></g>
<g><path style="opacity:1" fill="#ee8864" d="M 103.5,131.5 C 104.404,132.209 104.737,133.209 104.5,134.5C 104.336,137.187 104.503,139.854 105,142.5C 105.383,143.056 105.883,143.389 106.5,143.5C 106.5,144.167 106.833,144.5 107.5,144.5C 108.299,147.43 108.632,150.43 108.5,153.5C 106.883,154.038 105.216,154.371 103.5,154.5C 102.839,149.839 102.172,145.172 101.5,140.5C 101.345,137.232 102.011,134.232 103.5,131.5 Z"/></g>
<g><path style="opacity:1" fill="#4b6680" d="M 74.5,134.5 C 74.8333,134.5 75.1667,134.5 75.5,134.5C 73.9899,138.344 74.9899,141.51 78.5,144C 81.8168,144.498 85.1501,144.665 88.5,144.5C 88.5,143.167 88.5,141.833 88.5,140.5C 89.1386,141.097 89.472,141.93 89.5,143C 89.6134,144.699 88.9468,145.866 87.5,146.5C 85.665,147.122 84.4983,148.456 84,150.5C 83.51,149.207 83.3433,147.873 83.5,146.5C 79.5933,146.592 76.2599,145.258 73.5,142.5C 71.9241,139.504 72.2574,136.838 74.5,134.5 Z"/></g>
<g><path style="opacity:1" fill="#b15b3e" d="M 89.5,132.5 C 89.8333,133.167 90.1667,133.833 90.5,134.5C 91.1667,140.167 91.8333,145.833 92.5,151.5C 91.448,151.649 90.448,151.483 89.5,151C 90.7383,150.31 90.7383,149.81 89.5,149.5C 88.8333,148.5 88.1667,147.5 87.5,146.5C 88.9468,145.866 89.6134,144.699 89.5,143C 89.472,141.93 89.1386,141.097 88.5,140.5C 88.5,140.167 88.5,139.833 88.5,139.5C 89.3612,136.968 89.6945,134.635 89.5,132.5 Z"/></g>
<g><path style="opacity:0.996" fill="#4a3734" d="M 128.5,105.5 C 128.295,110.654 127.295,115.654 125.5,120.5C 123.929,122.415 121.929,123.415 119.5,123.5C 119.263,124.791 119.596,125.791 120.5,126.5C 123.192,128.203 125.192,130.536 126.5,133.5C 125.395,134.892 124.061,136.059 122.5,137C 123.496,141.297 124.496,145.63 125.5,150C 122.862,158.911 118.028,160.411 111,154.5C 100.671,156.993 90.171,158.16 79.5,158C 73.8762,162.009 69.7096,160.842 67,154.5C 66.3988,149.884 65.2322,145.55 63.5,141.5C 65.4147,141.216 67.0813,141.549 68.5,142.5C 67.3509,142.791 66.6842,143.624 66.5,145C 66.528,146.07 66.8614,146.903 67.5,147.5C 66.8664,153.294 69.1998,157.294 74.5,159.5C 77.4698,158.363 79.6365,156.363 81,153.5C 81.2784,154.416 81.7784,155.082 82.5,155.5C 85.6248,156.479 88.9581,156.813 92.5,156.5C 95.2372,156.599 97.9039,156.265 100.5,155.5C 101.609,155.443 102.609,155.11 103.5,154.5C 105.216,154.371 106.883,154.038 108.5,153.5C 110.179,153.715 111.179,153.048 111.5,151.5C 113.412,155.123 116.412,156.623 120.5,156C 124.787,150.219 124.12,145.052 118.5,140.5C 118.833,139.167 119.167,137.833 119.5,136.5C 119.443,135.391 119.11,134.391 118.5,133.5C 120.54,134.519 122.54,134.519 124.5,133.5C 124.145,132.478 123.478,131.811 122.5,131.5C 122.586,130.504 122.252,129.671 121.5,129C 119.866,128.506 118.199,128.34 116.5,128.5C 116.025,126.216 115.025,124.216 113.5,122.5C 113.5,122.167 113.5,121.833 113.5,121.5C 115.129,122.625 116.629,123.959 118,125.5C 118.387,122.696 117.221,120.696 114.5,119.5C 114.44,118.957 114.107,118.624 113.5,118.5C 111.227,119.651 108.894,120.651 106.5,121.5C 107.791,122.527 107.791,123.527 106.5,124.5C 106.167,125.167 105.833,125.833 105.5,126.5C 105.167,126.5 104.833,126.5 104.5,126.5C 104.5,125.833 104.5,125.167 104.5,124.5C 105.404,123.791 105.737,122.791 105.5,121.5C 104.5,121.5 103.5,121.5 102.5,121.5C 112.403,118.213 121.07,112.88 128.5,105.5 Z"/></g>
<g><path style="opacity:1" fill="#a39794" d="M 89.5,149.5 C 90.7383,149.81 90.7383,150.31 89.5,151C 90.448,151.483 91.448,151.649 92.5,151.5C 92.5,152.5 92.5,153.5 92.5,154.5C 91.448,154.351 90.448,154.517 89.5,155C 90.7375,155.232 91.7375,155.732 92.5,156.5C 88.9581,156.813 85.6248,156.479 82.5,155.5C 85.6318,155.216 88.6318,154.383 91.5,153C 89.6161,152.784 87.9494,152.117 86.5,151C 87.2438,149.961 88.2438,149.461 89.5,149.5 Z"/></g>
<g><path style="opacity:1" fill="#a5887e" d="M 107.5,144.5 C 108.167,144.5 108.833,144.5 109.5,144.5C 109.4,147.108 110.067,149.442 111.5,151.5C 111.179,153.048 110.179,153.715 108.5,153.5C 108.632,150.43 108.299,147.43 107.5,144.5 Z"/></g>
<g><path style="opacity:1" fill="#887672" d="M 68.5,142.5 C 70.1667,142.5 71.8333,142.5 73.5,142.5C 72.2653,145.301 70.7653,147.968 69,150.5C 69.0789,148.154 69.9123,145.987 71.5,144C 70.2068,143.51 68.8734,143.343 67.5,143.5C 67.5,144.833 67.5,146.167 67.5,147.5C 66.8614,146.903 66.528,146.07 66.5,145C 66.6842,143.624 67.3509,142.791 68.5,142.5 Z"/></g>
<g><path style="opacity:1" fill="#f4e2dc" d="M 73.5,142.5 C 76.2599,145.258 79.5933,146.592 83.5,146.5C 83.3433,147.873 83.51,149.207 84,150.5C 84.4983,148.456 85.665,147.122 87.5,146.5C 88.1667,147.5 88.8333,148.5 89.5,149.5C 88.2438,149.461 87.2438,149.961 86.5,151C 87.9494,152.117 89.6161,152.784 91.5,153C 88.6318,154.383 85.6318,155.216 82.5,155.5C 81.7784,155.082 81.2784,154.416 81,153.5C 79.6365,156.363 77.4698,158.363 74.5,159.5C 69.1998,157.294 66.8664,153.294 67.5,147.5C 67.5,146.167 67.5,144.833 67.5,143.5C 68.8734,143.343 70.2068,143.51 71.5,144C 69.9123,145.987 69.0789,148.154 69,150.5C 70.7653,147.968 72.2653,145.301 73.5,142.5 Z"/></g>
<g><path style="opacity:1" fill="#b28e84" d="M 114.5,119.5 C 113.833,119.5 113.5,119.833 113.5,120.5C 111.597,120.796 109.93,121.463 108.5,122.5C 110.911,125.146 110.245,125.812 106.5,124.5C 107.791,123.527 107.791,122.527 106.5,121.5C 108.894,120.651 111.227,119.651 113.5,118.5C 114.107,118.624 114.44,118.957 114.5,119.5 Z"/></g>
<g><path style="opacity:1" fill="#f7e3dd" d="M 114.5,119.5 C 117.221,120.696 118.387,122.696 118,125.5C 116.629,123.959 115.129,122.625 113.5,121.5C 113.5,121.167 113.5,120.833 113.5,120.5C 113.5,119.833 113.833,119.5 114.5,119.5 Z"/></g>
<g><path style="opacity:1" fill="#6f2e1a" d="M 113.5,120.5 C 113.5,120.833 113.5,121.167 113.5,121.5C 113.5,121.833 113.5,122.167 113.5,122.5C 111.833,122.5 110.167,122.5 108.5,122.5C 109.93,121.463 111.597,120.796 113.5,120.5 Z"/></g>
</svg>
